<mxfile host="app.diagrams.net" modified="2024-03-05T08:58:41.308Z" agent="Mozilla/5.0 (Macintosh; Intel Mac OS X 10_15_7) AppleWebKit/605.1.15 (KHTML, like Gecko) Version/17.3 Safari/605.1.15" etag="L3xLJAwn61Azk4EyB27j" version="24.0.1" type="github">
  <diagram name="Page-1" id="hG9xkE56fZRQg6q2mspR">
    <mxGraphModel dx="1230" dy="718" grid="1" gridSize="10" guides="1" tooltips="1" connect="1" arrows="1" fold="1" page="1" pageScale="1" pageWidth="827" pageHeight="1169" math="0" shadow="0">
      <root>
        <mxCell id="0" />
        <mxCell id="1" parent="0" />
        <mxCell id="KcpmJXCLXHGBYeHfs5BX-1" value="" style="endArrow=none;dashed=1;html=1;dashPattern=1 3;strokeWidth=2;rounded=0;" edge="1" parent="1">
          <mxGeometry width="50" height="50" relative="1" as="geometry">
            <mxPoint x="400" y="480" as="sourcePoint" />
            <mxPoint x="400" y="10" as="targetPoint" />
          </mxGeometry>
        </mxCell>
        <mxCell id="KcpmJXCLXHGBYeHfs5BX-2" value="&lt;font style=&quot;font-size: 17px;&quot;&gt;current&lt;/font&gt;&lt;div&gt;(Infrabuddy running&amp;nbsp;&lt;/div&gt;&lt;div&gt;on Infrabrew host)&lt;/div&gt;" style="text;html=1;align=center;verticalAlign=middle;resizable=0;points=[];autosize=1;strokeColor=none;fillColor=none;" vertex="1" parent="1">
          <mxGeometry x="115" y="5" width="130" height="60" as="geometry" />
        </mxCell>
        <mxCell id="KcpmJXCLXHGBYeHfs5BX-3" value="&lt;div style=&quot;font-size: 17px;&quot;&gt;&lt;font style=&quot;font-size: 17px;&quot;&gt;proposed&lt;br&gt;&lt;/font&gt;&lt;/div&gt;&lt;div&gt;&lt;font style=&quot;font-size: 12px;&quot;&gt;(Infrabuddy running&amp;nbsp;&lt;/font&gt;&lt;/div&gt;&lt;div style=&quot;&quot;&gt;on each host)&lt;/div&gt;" style="text;html=1;align=center;verticalAlign=middle;resizable=0;points=[];autosize=1;strokeColor=none;fillColor=none;" vertex="1" parent="1">
          <mxGeometry x="550" y="5" width="130" height="60" as="geometry" />
        </mxCell>
        <mxCell id="KcpmJXCLXHGBYeHfs5BX-4" value="bamboo agent" style="rounded=0;whiteSpace=wrap;html=1;" vertex="1" parent="1">
          <mxGeometry x="160" y="80" width="70" height="30" as="geometry" />
        </mxCell>
        <mxCell id="KcpmJXCLXHGBYeHfs5BX-54" style="edgeStyle=orthogonalEdgeStyle;rounded=0;orthogonalLoop=1;jettySize=auto;html=1;entryX=0.5;entryY=0;entryDx=0;entryDy=0;" edge="1" parent="1" source="KcpmJXCLXHGBYeHfs5BX-5" target="KcpmJXCLXHGBYeHfs5BX-50">
          <mxGeometry relative="1" as="geometry">
            <mxPoint x="90" y="340" as="targetPoint" />
          </mxGeometry>
        </mxCell>
        <mxCell id="KcpmJXCLXHGBYeHfs5BX-55" style="edgeStyle=orthogonalEdgeStyle;rounded=0;orthogonalLoop=1;jettySize=auto;html=1;entryX=0.5;entryY=0;entryDx=0;entryDy=0;" edge="1" parent="1" source="KcpmJXCLXHGBYeHfs5BX-5" target="KcpmJXCLXHGBYeHfs5BX-46">
          <mxGeometry relative="1" as="geometry" />
        </mxCell>
        <mxCell id="KcpmJXCLXHGBYeHfs5BX-5" value="infrabuddy API on infrabrew host" style="whiteSpace=wrap;html=1;" vertex="1" parent="1">
          <mxGeometry x="135" y="180" width="120" height="60" as="geometry" />
        </mxCell>
        <mxCell id="KcpmJXCLXHGBYeHfs5BX-6" value="" style="endArrow=classic;html=1;rounded=0;exitX=0.5;exitY=1;exitDx=0;exitDy=0;" edge="1" parent="1" source="KcpmJXCLXHGBYeHfs5BX-4" target="KcpmJXCLXHGBYeHfs5BX-5">
          <mxGeometry width="50" height="50" relative="1" as="geometry">
            <mxPoint x="390" y="400" as="sourcePoint" />
            <mxPoint x="440" y="350" as="targetPoint" />
          </mxGeometry>
        </mxCell>
        <mxCell id="KcpmJXCLXHGBYeHfs5BX-7" value="HTTP API" style="text;html=1;align=center;verticalAlign=middle;resizable=0;points=[];autosize=1;strokeColor=none;fillColor=none;" vertex="1" parent="1">
          <mxGeometry x="190" y="128" width="80" height="30" as="geometry" />
        </mxCell>
        <mxCell id="KcpmJXCLXHGBYeHfs5BX-29" value="SSH command&lt;div&gt;(chef-client)&lt;/div&gt;" style="text;html=1;align=center;verticalAlign=middle;resizable=0;points=[];autosize=1;strokeColor=none;fillColor=none;" vertex="1" parent="1">
          <mxGeometry x="150" y="295" width="100" height="40" as="geometry" />
        </mxCell>
        <mxCell id="KcpmJXCLXHGBYeHfs5BX-46" value="DMZ Network" style="swimlane;fontStyle=0;childLayout=stackLayout;horizontal=1;startSize=30;horizontalStack=0;resizeParent=1;resizeParentMax=0;resizeLast=0;collapsible=1;marginBottom=0;whiteSpace=wrap;html=1;" vertex="1" parent="1">
          <mxGeometry x="230" y="350" width="140" height="120" as="geometry" />
        </mxCell>
        <mxCell id="KcpmJXCLXHGBYeHfs5BX-47" value="VM 1" style="text;strokeColor=none;fillColor=none;align=left;verticalAlign=middle;spacingLeft=4;spacingRight=4;overflow=hidden;points=[[0,0.5],[1,0.5]];portConstraint=eastwest;rotatable=0;whiteSpace=wrap;html=1;" vertex="1" parent="KcpmJXCLXHGBYeHfs5BX-46">
          <mxGeometry y="30" width="140" height="30" as="geometry" />
        </mxCell>
        <mxCell id="KcpmJXCLXHGBYeHfs5BX-48" value="VM 2" style="text;strokeColor=none;fillColor=none;align=left;verticalAlign=middle;spacingLeft=4;spacingRight=4;overflow=hidden;points=[[0,0.5],[1,0.5]];portConstraint=eastwest;rotatable=0;whiteSpace=wrap;html=1;" vertex="1" parent="KcpmJXCLXHGBYeHfs5BX-46">
          <mxGeometry y="60" width="140" height="30" as="geometry" />
        </mxCell>
        <mxCell id="KcpmJXCLXHGBYeHfs5BX-49" value="VM 3" style="text;strokeColor=none;fillColor=none;align=left;verticalAlign=middle;spacingLeft=4;spacingRight=4;overflow=hidden;points=[[0,0.5],[1,0.5]];portConstraint=eastwest;rotatable=0;whiteSpace=wrap;html=1;" vertex="1" parent="KcpmJXCLXHGBYeHfs5BX-46">
          <mxGeometry y="90" width="140" height="30" as="geometry" />
        </mxCell>
        <mxCell id="KcpmJXCLXHGBYeHfs5BX-50" value="Core Network" style="swimlane;fontStyle=0;childLayout=stackLayout;horizontal=1;startSize=30;horizontalStack=0;resizeParent=1;resizeParentMax=0;resizeLast=0;collapsible=1;marginBottom=0;whiteSpace=wrap;html=1;" vertex="1" parent="1">
          <mxGeometry x="20" y="350" width="140" height="120" as="geometry" />
        </mxCell>
        <mxCell id="KcpmJXCLXHGBYeHfs5BX-51" value="VM 1" style="text;strokeColor=none;fillColor=none;align=left;verticalAlign=middle;spacingLeft=4;spacingRight=4;overflow=hidden;points=[[0,0.5],[1,0.5]];portConstraint=eastwest;rotatable=0;whiteSpace=wrap;html=1;" vertex="1" parent="KcpmJXCLXHGBYeHfs5BX-50">
          <mxGeometry y="30" width="140" height="30" as="geometry" />
        </mxCell>
        <mxCell id="KcpmJXCLXHGBYeHfs5BX-52" value="VM 2" style="text;strokeColor=none;fillColor=none;align=left;verticalAlign=middle;spacingLeft=4;spacingRight=4;overflow=hidden;points=[[0,0.5],[1,0.5]];portConstraint=eastwest;rotatable=0;whiteSpace=wrap;html=1;" vertex="1" parent="KcpmJXCLXHGBYeHfs5BX-50">
          <mxGeometry y="60" width="140" height="30" as="geometry" />
        </mxCell>
        <mxCell id="KcpmJXCLXHGBYeHfs5BX-53" value="VM 3" style="text;strokeColor=none;fillColor=none;align=left;verticalAlign=middle;spacingLeft=4;spacingRight=4;overflow=hidden;points=[[0,0.5],[1,0.5]];portConstraint=eastwest;rotatable=0;whiteSpace=wrap;html=1;" vertex="1" parent="KcpmJXCLXHGBYeHfs5BX-50">
          <mxGeometry y="90" width="140" height="30" as="geometry" />
        </mxCell>
        <mxCell id="KcpmJXCLXHGBYeHfs5BX-56" value="bamboo agent" style="rounded=0;whiteSpace=wrap;html=1;" vertex="1" parent="1">
          <mxGeometry x="580" y="80" width="70" height="30" as="geometry" />
        </mxCell>
        <mxCell id="KcpmJXCLXHGBYeHfs5BX-57" style="edgeStyle=orthogonalEdgeStyle;rounded=0;orthogonalLoop=1;jettySize=auto;html=1;entryX=0.5;entryY=0;entryDx=0;entryDy=0;" edge="1" parent="1" target="KcpmJXCLXHGBYeHfs5BX-67">
          <mxGeometry relative="1" as="geometry">
            <mxPoint x="510" y="340" as="targetPoint" />
            <mxPoint x="615" y="240" as="sourcePoint" />
          </mxGeometry>
        </mxCell>
        <mxCell id="KcpmJXCLXHGBYeHfs5BX-58" style="edgeStyle=orthogonalEdgeStyle;rounded=0;orthogonalLoop=1;jettySize=auto;html=1;entryX=0.5;entryY=0;entryDx=0;entryDy=0;" edge="1" parent="1" target="KcpmJXCLXHGBYeHfs5BX-63">
          <mxGeometry relative="1" as="geometry">
            <mxPoint x="615" y="240" as="sourcePoint" />
          </mxGeometry>
        </mxCell>
        <mxCell id="KcpmJXCLXHGBYeHfs5BX-60" value="" style="endArrow=classic;html=1;rounded=0;exitX=0.5;exitY=1;exitDx=0;exitDy=0;" edge="1" parent="1" source="KcpmJXCLXHGBYeHfs5BX-56">
          <mxGeometry width="50" height="50" relative="1" as="geometry">
            <mxPoint x="810" y="400" as="sourcePoint" />
            <mxPoint x="615" y="240" as="targetPoint" />
          </mxGeometry>
        </mxCell>
        <mxCell id="KcpmJXCLXHGBYeHfs5BX-62" value="HTTP Call&lt;div&gt;(chef-client)&lt;/div&gt;" style="text;html=1;align=center;verticalAlign=middle;resizable=0;points=[];autosize=1;strokeColor=none;fillColor=none;" vertex="1" parent="1">
          <mxGeometry x="620" y="170" width="90" height="40" as="geometry" />
        </mxCell>
        <mxCell id="KcpmJXCLXHGBYeHfs5BX-63" value="DMZ Network" style="swimlane;fontStyle=0;childLayout=stackLayout;horizontal=1;startSize=30;horizontalStack=0;resizeParent=1;resizeParentMax=0;resizeLast=0;collapsible=1;marginBottom=0;whiteSpace=wrap;html=1;" vertex="1" parent="1">
          <mxGeometry x="650" y="350" width="140" height="120" as="geometry" />
        </mxCell>
        <mxCell id="KcpmJXCLXHGBYeHfs5BX-64" value="VM 1" style="text;strokeColor=none;fillColor=none;align=left;verticalAlign=middle;spacingLeft=4;spacingRight=4;overflow=hidden;points=[[0,0.5],[1,0.5]];portConstraint=eastwest;rotatable=0;whiteSpace=wrap;html=1;" vertex="1" parent="KcpmJXCLXHGBYeHfs5BX-63">
          <mxGeometry y="30" width="140" height="30" as="geometry" />
        </mxCell>
        <mxCell id="KcpmJXCLXHGBYeHfs5BX-65" value="VM 2" style="text;strokeColor=none;fillColor=none;align=left;verticalAlign=middle;spacingLeft=4;spacingRight=4;overflow=hidden;points=[[0,0.5],[1,0.5]];portConstraint=eastwest;rotatable=0;whiteSpace=wrap;html=1;" vertex="1" parent="KcpmJXCLXHGBYeHfs5BX-63">
          <mxGeometry y="60" width="140" height="30" as="geometry" />
        </mxCell>
        <mxCell id="KcpmJXCLXHGBYeHfs5BX-66" value="VM 3" style="text;strokeColor=none;fillColor=none;align=left;verticalAlign=middle;spacingLeft=4;spacingRight=4;overflow=hidden;points=[[0,0.5],[1,0.5]];portConstraint=eastwest;rotatable=0;whiteSpace=wrap;html=1;" vertex="1" parent="KcpmJXCLXHGBYeHfs5BX-63">
          <mxGeometry y="90" width="140" height="30" as="geometry" />
        </mxCell>
        <mxCell id="KcpmJXCLXHGBYeHfs5BX-67" value="Core Network" style="swimlane;fontStyle=0;childLayout=stackLayout;horizontal=1;startSize=30;horizontalStack=0;resizeParent=1;resizeParentMax=0;resizeLast=0;collapsible=1;marginBottom=0;whiteSpace=wrap;html=1;" vertex="1" parent="1">
          <mxGeometry x="440" y="350" width="140" height="120" as="geometry" />
        </mxCell>
        <mxCell id="KcpmJXCLXHGBYeHfs5BX-68" value="VM 1" style="text;strokeColor=none;fillColor=none;align=left;verticalAlign=middle;spacingLeft=4;spacingRight=4;overflow=hidden;points=[[0,0.5],[1,0.5]];portConstraint=eastwest;rotatable=0;whiteSpace=wrap;html=1;" vertex="1" parent="KcpmJXCLXHGBYeHfs5BX-67">
          <mxGeometry y="30" width="140" height="30" as="geometry" />
        </mxCell>
        <mxCell id="KcpmJXCLXHGBYeHfs5BX-69" value="VM 2" style="text;strokeColor=none;fillColor=none;align=left;verticalAlign=middle;spacingLeft=4;spacingRight=4;overflow=hidden;points=[[0,0.5],[1,0.5]];portConstraint=eastwest;rotatable=0;whiteSpace=wrap;html=1;" vertex="1" parent="KcpmJXCLXHGBYeHfs5BX-67">
          <mxGeometry y="60" width="140" height="30" as="geometry" />
        </mxCell>
        <mxCell id="KcpmJXCLXHGBYeHfs5BX-70" value="VM 3" style="text;strokeColor=none;fillColor=none;align=left;verticalAlign=middle;spacingLeft=4;spacingRight=4;overflow=hidden;points=[[0,0.5],[1,0.5]];portConstraint=eastwest;rotatable=0;whiteSpace=wrap;html=1;" vertex="1" parent="KcpmJXCLXHGBYeHfs5BX-67">
          <mxGeometry y="90" width="140" height="30" as="geometry" />
        </mxCell>
      </root>
    </mxGraphModel>
  </diagram>
</mxfile>
